<?xml version="1.0" encoding="utf-8"?>
<svg version="1.0" id="Layer_1" xmlns="http://www.w3.org/2000/svg" xmlns:xlink="http://www.w3.org/1999/xlink" x="0px"
     y="0px"
     width="17.008px" height="17.008px" viewBox="0 0 17.008 17.008"
     xml:space="preserve">
    <rect x="0" y="0" width="17.008" height="17.008" fill="#C7EAFB"/>
    <path d="M9.918,8.504l5.521-5.521c0.39-0.39,0.39-1.024,0-1.414c-0.391-0.39-1.024-0.39-1.414,0L8.504,7.09L2.983,1.569
	c-0.39-0.391-1.024-0.391-1.414,0c-0.39,0.391-0.39,1.024,0,1.414L7.09,8.504l-5.521,5.521c-0.39,0.391-0.39,1.024,0,1.414
	c0.391,0.391,1.024,0.391,1.414,0l5.521-5.521l5.521,5.521c0.39,0.391,1.024,0.391,1.414,0c0.39-0.391,0.39-1.024,0-1.414
	L9.918,8.504z"/>
</svg>
