<?xml version="1.0" encoding="utf-8"?>
<!-- Generator: Adobe Illustrator 24.3.0, SVG Export Plug-In . SVG Version: 6.00 Build 0)  -->
<svg version="1.0" id="Layer_1" xmlns="http://www.w3.org/2000/svg" xmlns:xlink="http://www.w3.org/1999/xlink" x="0px" y="0px"
	 width="128.92px" height="123.8px" viewBox="0 0 128.92 123.8" style="enable-background:new 0 0 128.92 123.8;"
	 xml:space="preserve">
	<path style="fill:#8DC63F;" d="M56.9,83.56c-0.41,0.37-0.61,0.81-0.61,1.33v22.65
		c0,0.52,0.2,0.96,0.61,1.33c0.41,0.37,0.9,0.55,1.48,0.55c0.58,0,1.07-0.18,1.48-0.55c0.41-0.37,0.62-0.82,0.62-1.33V93.39
		c0-1.83,0.72-3.38,2.15-4.67s3.16-1.93,5.18-1.93c2.02,0,3.75,0.64,5.18,1.93s2.15,2.85,2.15,4.67v14.16
		c0,0.52,0.21,0.96,0.62,1.33c0.41,0.37,0.9,0.55,1.48,0.55c0.58,0,1.07-0.18,1.48-0.55c0.41-0.37,0.61-0.82,0.61-1.33V93.39
		c0-1.83,0.72-3.38,2.15-4.67c1.43-1.29,3.16-1.93,5.18-1.93c2.02,0,3.75,0.64,5.18,1.93c1.43,1.29,2.15,2.85,2.15,4.67v14.16
		c0,0.52,0.21,0.96,0.61,1.33c0.41,0.37,0.9,0.55,1.48,0.55c0.58,0,1.07-0.18,1.48-0.55c0.41-0.37,0.62-0.82,0.62-1.33V93.39
		c0-2.86-1.12-5.31-3.38-7.34c-2.25-2.03-4.97-3.04-8.14-3.04c-3.18,0-5.89,1.01-8.14,3.04c-0.47,0.43-0.9,0.87-1.28,1.35
		c-0.38-0.47-0.81-0.92-1.28-1.35c-2.25-2.03-4.97-3.04-8.14-3.04c-2.81,0-5.25,0.79-7.33,2.38V84.9c0-0.52-0.21-0.96-0.62-1.33
		c-0.41-0.37-0.9-0.55-1.48-0.55C57.8,83.01,57.31,83.2,56.9,83.56 M118.37,16.29C87.7,24.13-7.98,77.82,19.54,110.27
		c1.45,1.47,3.5,3.3,5.02,4.69l1.36,1.13C-7.75,88.69,75.55,31.94,118.37,16.29"/>
	<path style="fill:#00AEEF;" d="M119.73,96.43h-11.19l11.19-16.36V96.43z M123.4,100.15h3.68
		c0.51,0,0.94-0.18,1.3-0.55s0.54-0.8,0.54-1.31c0-0.51-0.18-0.95-0.54-1.31s-0.79-0.55-1.3-0.55h-3.68V74.12
		c0-0.51-0.18-0.95-0.54-1.31s-0.79-0.55-1.3-0.55c-0.66,0-1.16,0.25-1.49,0.77L103.52,97.2c-0.23,0.32-0.35,0.69-0.35,1.09
		c0,0.51,0.18,0.95,0.54,1.31s0.79,0.55,1.3,0.55h14.71v7.44c0,0.51,0.18,0.95,0.54,1.31c0.36,0.36,0.79,0.55,1.3,0.55
		c0.5,0,0.94-0.18,1.3-0.55c0.36-0.36,0.54-0.8,0.54-1.31V100.15z M122.48,121.77c0,0.16-0.05,0.3-0.16,0.42
		c-0.44,0.42-1.02,0.63-1.75,0.63c-0.73,0-1.36-0.24-1.87-0.71c-0.04-0.04-0.1-0.1-0.19-0.18c-0.09-0.08-0.21-0.13-0.35-0.13
		c-0.15,0-0.27,0.05-0.37,0.14c-0.1,0.1-0.16,0.21-0.16,0.35c0,0.11,0.03,0.2,0.1,0.29c0.79,0.82,1.74,1.23,2.85,1.23
		c1.02,0,1.85-0.3,2.49-0.9c0.33-0.3,0.49-0.65,0.49-1.06c0-0.4-0.16-0.75-0.47-1.03c-0.16-0.15-0.44-0.29-0.84-0.43l-3.26-0.99
		c-0.2-0.07-0.31-0.2-0.32-0.39c0-0.16,0.05-0.3,0.16-0.42c0.44-0.42,1.02-0.63,1.76-0.63c0.73,0,1.36,0.24,1.88,0.71
		c0.04,0.04,0.1,0.1,0.19,0.18c0.09,0.09,0.2,0.13,0.35,0.13c0.15,0,0.27-0.05,0.37-0.14c0.1-0.1,0.16-0.21,0.16-0.34
		c0-0.11-0.03-0.21-0.1-0.29c-0.79-0.82-1.74-1.22-2.85-1.22c-1.02,0-1.86,0.3-2.49,0.9c-0.33,0.3-0.49,0.65-0.49,1.05
		c0,0.4,0.16,0.75,0.47,1.03c0.16,0.15,0.44,0.29,0.84,0.43l3.26,0.99C122.36,121.45,122.46,121.58,122.48,121.77 M108.57,117.12
		c-0.1,0.1-0.15,0.21-0.15,0.34v5.85c0,0.13,0.05,0.25,0.15,0.34c0.1,0.1,0.23,0.14,0.38,0.14c0.15,0,0.27-0.05,0.37-0.14
		c0.1-0.1,0.16-0.21,0.16-0.34v-3.17c0-0.61,0.23-1.12,0.7-1.55c0.47-0.43,1.03-0.64,1.69-0.64s1.22,0.21,1.69,0.64
		c0.47,0.43,0.7,0.95,0.7,1.55v3.17c0,0.13,0.05,0.25,0.15,0.34c0.1,0.1,0.23,0.14,0.38,0.14c0.14,0,0.27-0.05,0.37-0.14
		c0.1-0.1,0.16-0.21,0.16-0.34v-3.17c0-0.87-0.34-1.62-1.01-2.24c-0.67-0.62-1.48-0.93-2.43-0.93c-0.93,0-1.72,0.29-2.38,0.88v-0.4
		c0-0.13-0.05-0.25-0.16-0.34c-0.1-0.1-0.23-0.14-0.37-0.14C108.8,116.97,108.67,117.02,108.57,117.12 M99.77,120.39
		c0-0.68,0.26-1.25,0.78-1.73c0.52-0.48,1.14-0.71,1.88-0.71s1.36,0.24,1.87,0.71c0.52,0.48,0.77,1.05,0.77,1.73
		c0,0.67-0.26,1.25-0.77,1.72c-0.52,0.48-1.14,0.71-1.87,0.71s-1.36-0.24-1.88-0.71S99.77,121.06,99.77,120.39 M99.8,117.97
		c-0.72,0.67-1.09,1.47-1.09,2.42s0.36,1.75,1.09,2.41c0.72,0.67,1.6,1,2.62,1c1.02,0,1.9-0.33,2.62-1
		c0.72-0.67,1.09-1.47,1.09-2.41s-0.36-1.75-1.09-2.42c-0.73-0.67-1.6-1-2.62-1C101.4,116.97,100.52,117.31,99.8,117.97 M95,117.12
		c-0.1,0.1-0.15,0.21-0.15,0.34v5.85c0,0.13,0.05,0.25,0.15,0.34c0.1,0.1,0.23,0.14,0.38,0.14c0.15,0,0.27-0.05,0.37-0.14
		c0.1-0.1,0.16-0.21,0.16-0.34v-5.85c0-0.13-0.05-0.25-0.16-0.34c-0.1-0.1-0.23-0.14-0.37-0.14C95.23,116.97,95.1,117.02,95,117.12
		 M94.91,115.08c-0.13,0.12-0.2,0.26-0.2,0.43c0,0.17,0.06,0.31,0.2,0.43c0.13,0.12,0.29,0.18,0.47,0.18s0.34-0.06,0.47-0.18
		c0.13-0.12,0.19-0.26,0.19-0.43c0-0.17-0.07-0.31-0.19-0.43c-0.13-0.12-0.29-0.18-0.47-0.18S95.04,114.96,94.91,115.08
		 M87.95,117.12c-0.1,0.1-0.15,0.21-0.15,0.34s0.05,0.25,0.15,0.35c0.1,0.1,0.23,0.14,0.38,0.14h0.53v3.41
		c0,1.63,0.88,2.44,2.65,2.44c0.15,0,0.27-0.05,0.37-0.14c0.1-0.1,0.16-0.21,0.16-0.34c0-0.13-0.05-0.25-0.16-0.34
		c-0.1-0.1-0.23-0.14-0.37-0.14c-1.06,0-1.59-0.49-1.59-1.46v-3.41h1.07c0.15,0,0.27-0.05,0.37-0.14c0.1-0.1,0.16-0.21,0.16-0.35
		s-0.05-0.25-0.16-0.34c-0.1-0.1-0.23-0.14-0.37-0.14h-1.07v-2.44c0-0.13-0.05-0.25-0.15-0.34c-0.1-0.1-0.23-0.14-0.37-0.14
		c-0.15,0-0.27,0.05-0.38,0.14c-0.1,0.1-0.15,0.21-0.15,0.34v2.44h-0.53C88.18,116.97,88.05,117.02,87.95,117.12 M78.78,117.12
		c-0.1,0.1-0.16,0.21-0.16,0.34v3.17c0,0.87,0.34,1.62,1.01,2.24c0.67,0.62,1.49,0.93,2.43,0.93c0.93,0,1.72-0.3,2.38-0.88v0.4
		c0,0.13,0.05,0.25,0.16,0.34c0.1,0.1,0.23,0.14,0.37,0.14c0.15,0,0.27-0.05,0.37-0.14c0.1-0.1,0.16-0.21,0.16-0.34v-5.85
		c0-0.13-0.05-0.25-0.16-0.34c-0.1-0.1-0.23-0.14-0.37-0.14c-0.15,0-0.27,0.05-0.37,0.14c-0.1,0.1-0.16,0.21-0.16,0.34v3.17
		c0,0.61-0.23,1.12-0.7,1.55c-0.47,0.43-1.03,0.64-1.69,0.64c-0.66,0-1.22-0.21-1.69-0.64c-0.47-0.43-0.7-0.95-0.7-1.55v-3.17
		c0-0.13-0.05-0.25-0.16-0.34c-0.1-0.1-0.23-0.14-0.37-0.14C79.01,116.97,78.88,117.02,78.78,117.12 M74.38,114.19
		c-0.1,0.1-0.16,0.21-0.16,0.34v8.78c0,0.13,0.05,0.25,0.16,0.34c0.1,0.1,0.23,0.14,0.38,0.14h1.06c0.14,0,0.27-0.05,0.37-0.14
		c0.1-0.1,0.15-0.21,0.15-0.34c0-0.13-0.05-0.25-0.15-0.34c-0.1-0.1-0.23-0.14-0.37-0.14h-0.53v-8.29c0-0.13-0.05-0.25-0.16-0.34
		c-0.1-0.1-0.23-0.14-0.37-0.14C74.61,114.05,74.48,114.1,74.38,114.19 M65.58,120.39c0-0.68,0.26-1.25,0.78-1.73
		c0.52-0.48,1.14-0.71,1.88-0.71s1.36,0.24,1.87,0.71c0.52,0.48,0.78,1.05,0.78,1.73c0,0.67-0.26,1.25-0.78,1.72
		c-0.52,0.48-1.14,0.71-1.87,0.71s-1.36-0.24-1.88-0.71S65.58,121.06,65.58,120.39 M65.61,117.97c-0.72,0.67-1.09,1.47-1.09,2.42
		s0.36,1.75,1.09,2.41c0.72,0.67,1.6,1,2.62,1c1.02,0,1.9-0.33,2.62-1c0.72-0.67,1.09-1.47,1.09-2.41s-0.36-1.75-1.09-2.42
		c-0.72-0.67-1.6-1-2.62-1C67.21,116.97,66.33,117.31,65.61,117.97 M61.18,121.77c0,0.16-0.05,0.3-0.16,0.42
		c-0.44,0.42-1.02,0.63-1.75,0.63c-0.73,0-1.36-0.24-1.88-0.71c-0.04-0.04-0.1-0.1-0.19-0.18c-0.09-0.08-0.21-0.13-0.35-0.13
		c-0.15,0-0.27,0.05-0.37,0.14c-0.1,0.1-0.16,0.21-0.16,0.35c0,0.11,0.03,0.2,0.1,0.29c0.79,0.82,1.74,1.23,2.85,1.23
		c1.02,0,1.85-0.3,2.49-0.9c0.33-0.3,0.49-0.65,0.49-1.06c0-0.4-0.16-0.75-0.47-1.03c-0.16-0.15-0.44-0.29-0.84-0.43l-3.26-0.99
		c-0.2-0.07-0.31-0.2-0.32-0.39c0-0.16,0.05-0.3,0.16-0.42c0.44-0.42,1.02-0.63,1.76-0.63c0.73,0,1.36,0.24,1.87,0.71
		c0.04,0.04,0.1,0.1,0.19,0.18c0.09,0.09,0.21,0.13,0.35,0.13c0.14,0,0.27-0.05,0.37-0.14c0.1-0.1,0.15-0.21,0.15-0.34
		c0-0.11-0.03-0.21-0.1-0.29c-0.79-0.82-1.74-1.22-2.85-1.22c-1.03,0-1.86,0.3-2.49,0.9c-0.33,0.3-0.49,0.65-0.49,1.05
		c0,0.4,0.16,0.75,0.47,1.03c0.16,0.15,0.44,0.29,0.84,0.43l3.26,0.99C61.05,121.45,61.16,121.58,61.18,121.77 M37.53,0.35
		c-14.44,8.01-20.2,14.97-22.96,18.31l-2.11,2.88C18.59,13.29,25.86,7.15,37.53,0.35 M44.39,0C14.43,15.79,7.74,29.49,5.54,34
		l-1.43,3.61l-0.26,0.74C7.12,29.38,16.8,15.45,44.39,0 M55.57,0.05C37.45,8.81,6.24,26.92,0.87,49.79
		c-0.28,1.61-0.5,3.77-0.71,5.38C3.4,32.15,32.08,12.49,55.57,0.05 M70.06,1.13C58.41,6.32,0.28,33.86,0,65.91
		c0.11,1.71,0.41,3.98,0.59,5.68l0.1,0.68C-2.42,51.16,24.16,23.9,70.06,1.13 M86.48,3.83C60.68,14.26-4.63,48.65,2.96,82.12
		l0.32,1.01c0.59,1.79,1.53,4.13,2.2,5.9C-7.14,56.99,52.95,19.29,86.48,3.83 M103.18,8.72C68.77,20.88-7,63.64,9.65,97.29
		l0.13,0.22c1.2,1.95,2.96,4.46,4.27,6.34C-7.69,72.31,61.37,26.33,103.18,8.72 M128.73,24C98.06,31.84,2.38,85.53,29.9,117.98
		c1.45,1.47,3.5,3.3,5.02,4.69l1.36,1.13C2.61,96.41,85.91,39.65,128.73,24"/>
</svg>
